HIERARCHY
ROOT hip
{
  OFFSET 0 0 0
  CHANNELS 6 Xposition Yposition Zposition Zrotation Yrotation Xrotation
  JOINT abdomen
  {
    OFFSET 0 20.6881 -0.73152
    CHANNELS 3 Zrotation Xrotation Yrotation
    JOINT chest
    {
      OFFSET 0 11.7043 -0.48768
      CHANNELS 3 Zrotation Xrotation Yrotation
      JOINT neck
      {
        OFFSET 0 22.1894 -2.19456
        CHANNELS 3 Zrotation Xrotation Yrotation
        JOINT head
        {
          OFFSET -0.24384 7.07133 1.2192
          CHANNELS 3 Zrotation Xrotation Yrotation
          JOINT leftEye
          {
            OFFSET 4.14528 8.04674 8.04672
            CHANNELS 3 Zrotation Xrotation Yrotation
            End Site
            {
              OFFSET 1 0 0
            }
          }
          JOINT rightEye
          {
            OFFSET -3.6576 8.04674 8.04672
            CHANNELS 3 Zrotation Xrotation Yrotation
            End Site
            {
              OFFSET 1 0 0
            }
          }
        }
      }
      JOINT rCollar
      {
        OFFSET -2.68224 19.2634 -4.8768
        CHANNELS 3 Zrotation Xrotation Yrotation
        JOINT rShldr
        {
          OFFSET -8.77824 -1.95073 1.46304
          CHANNELS 3 Zrotation Xrotation Yrotation
          JOINT rForeArm
          {
            OFFSET -28.1742 -1.7115 0.48768
            CHANNELS 3 Zrotation Xrotation Yrotation
            JOINT rHand
            {
              OFFSET -22.5879 0.773209 7.07136
              CHANNELS 3 Zrotation Xrotation Yrotation
              JOINT rThumb1
              {
                OFFSET -1.2192 -0.487915 3.41376
                CHANNELS 3 Zrotation Xrotation Yrotation
                JOINT rThumb2
                {
                  OFFSET -3.37035 -0.52449 3.41376
                  CHANNELS 3 Zrotation Xrotation Yrotation
                  End Site
                  {
                    OFFSET -1.78271 -1.18214 1.43049
                  }
                }
              }
              JOINT rIndex1
              {
                OFFSET -7.75947 0.938293 5.60832
                CHANNELS 3 Zrotation Xrotation Yrotation
                JOINT rIndex2
                {
                  OFFSET -2.54057 -0.884171 1.56538
                  CHANNELS 3 Zrotation Xrotation Yrotation
                  End Site
                  {
                    OFFSET -1.62519 -0.234802 1.16502
                  }
                }
              }
              JOINT rMid1
              {
                OFFSET -8.24714 1.18213 3.41376
                CHANNELS 3 Zrotation Xrotation Yrotation
                JOINT rMid2
                {
                  OFFSET -3.10165 -0.590103 1.0647
                  CHANNELS 3 Zrotation Xrotation Yrotation
                  End Site
                  {
                    OFFSET -2.48547 -0.328903 0.83742
                  }
                }
              }
              JOINT rRing1
              {
                OFFSET -8.82822 0.546677 1.51678
                CHANNELS 3 Zrotation Xrotation Yrotation
                JOINT rRing2
                {
                  OFFSET -2.60934 -0.819778 -0.0198488
                  CHANNELS 3 Zrotation Xrotation Yrotation
                  End Site
                  {
                    OFFSET -2.33842 -0.294052 0.168128
                  }
                }
              }
              JOINT rPinky1
              {
                OFFSET -8.27202 -0.0477905 -0.4584
                CHANNELS 3 Zrotation Xrotation Yrotation
                JOINT rPinky2
                {
                  OFFSET -1.82734 -0.647385 -0.700984
                  CHANNELS 3 Zrotation Xrotation Yrotation
                  End Site
                  {
                    OFFSET -1.69225 -0.51767 -0.607171
                  }
                }
              }
            }
          }
        }
      }
      JOINT lCollar
      {
        OFFSET 2.68224 19.2634 -4.8768
        CHANNELS 3 Zrotation Xrotation Yrotation
        JOINT lShldr
        {
          OFFSET 8.77824 -1.95073 1.46304
          CHANNELS 3 Zrotation Xrotation Yrotation
          JOINT lForeArm
          {
            OFFSET 28.1742 -1.7115 0.48768
            CHANNELS 3 Zrotation Xrotation Yrotation
            JOINT lHand
            {
              OFFSET 22.5879 0.773209 7.07136
              CHANNELS 3 Zrotation Xrotation Yrotation
              JOINT lThumb1
              {
                OFFSET 1.2192 -0.487915 3.41376
                CHANNELS 3 Zrotation Xrotation Yrotation
                JOINT lThumb2
                {
                  OFFSET 3.37035 -0.52449 3.41376
                  CHANNELS 3 Zrotation Xrotation Yrotation
                  End Site
                  {
                    OFFSET 1.78271 -1.18214 1.43049
                  }
                }
              }
              JOINT lIndex1
              {
                OFFSET 7.75947 0.938293 5.60832
                CHANNELS 3 Zrotation Xrotation Yrotation
                JOINT lIndex2
                {
                  OFFSET 2.54057 -0.884171 1.56538
                  CHANNELS 3 Zrotation Xrotation Yrotation
                  End Site
                  {
                    OFFSET 1.62519 -0.234802 1.16502
                  }
                }
              }
              JOINT lMid1
              {
                OFFSET 8.24714 1.18213 3.41376
                CHANNELS 3 Zrotation Xrotation Yrotation
                JOINT lMid2
                {
                  OFFSET 3.10165 -0.590103 1.0647
                  CHANNELS 3 Zrotation Xrotation Yrotation
                  End Site
                  {
                    OFFSET 2.48547 -0.328903 0.83742
                  }
                }
              }
              JOINT lRing1
              {
                OFFSET 8.82822 0.546677 1.51678
                CHANNELS 3 Zrotation Xrotation Yrotation
                JOINT lRing2
                {
                  OFFSET 2.60934 -0.819778 -0.0198488
                  CHANNELS 3 Zrotation Xrotation Yrotation
                  End Site
                  {
                    OFFSET 2.33842 -0.294052 0.168128
                  }
                }
              }
              JOINT lPinky1
              {
                OFFSET 8.27202 -0.0477905 -0.4584
                CHANNELS 3 Zrotation Xrotation Yrotation
                JOINT lPinky2
                {
                  OFFSET 1.82734 -0.647385 -0.700984
                  CHANNELS 3 Zrotation Xrotation Yrotation
                  End Site
                  {
                    OFFSET 1.69225 -0.51767 -0.607171
                  }
                }
              }
            }
          }
        }
      }
    }
  }
  JOINT rButtock
  {
    OFFSET -8.77824 4.35084 1.2192
    CHANNELS 3 Zrotation Xrotation Yrotation
    JOINT rThigh
    {
      OFFSET 0 -1.70687 -2.19456
      CHANNELS 3 Zrotation Xrotation Yrotation
      JOINT rShin
      {
        OFFSET 0 -36.8199 0.73152
        CHANNELS 3 Zrotation Xrotation Yrotation
        JOINT rFoot
        {
          OFFSET 0.73152 -45.1104 -5.12064
          CHANNELS 3 Zrotation Xrotation Yrotation
          End Site
          {
            OFFSET -1.1221 -3.69964 12.103
          }
        }
      }
    }
  }
  JOINT lButtock
  {
    OFFSET 8.77824 4.35084 1.2192
    CHANNELS 3 Zrotation Xrotation Yrotation
    JOINT lThigh
    {
      OFFSET 0 -1.70687 -2.19456
      CHANNELS 3 Zrotation Xrotation Yrotation
      JOINT lShin
      {
        OFFSET 0 -36.8199 0.73152
        CHANNELS 3 Zrotation Xrotation Yrotation
        JOINT lFoot
        {
          OFFSET -0.73152 -45.1104 -5.12064
          CHANNELS 3 Zrotation Xrotation Yrotation
          End Site
          {
            OFFSET 1.1221 -3.69964 12.103
          }
        }
      }
    }
  }
}
MOTION
Frames:	9
Frame Time:	0.00833333
0.651117 83.9933 -17.9235 0.0 0.0 0.0 -1.70621 -0.00254503 -0.0464499 -0.470559 0.00242722 -0.0814844 3.68962e-15 7.95139e-16 2.48481e-17 1.12438e-14 9.54166e-15 4.50372e-17 -0.0 0.0 0.0 -0.0 0.0 0.0 1.83773e-15 4.09605e-17 4.96962e-17 4.01261e-14 6.7711e-16 9.93923e-16 6.62798e-13 -1.65588e-13 -3.18055e-15 7.51911e-12 3.54532e-13 -1.90833e-14 1.77427e-11 4.09697e-13 -4.45278e-14 3.06315e-11 7.09264e-13 -9.93923e-14 1.77483e-11 4.09894e-13 -5.725e-14 7.73091 5.47488 0.417314 1.77428e-11 4.09894e-13 -4.77083e-14 2.90554 0.965183 0.102902 1.77498e-11 4.10192e-13 -5.48646e-14 10.2786 0.731801 0.0259123 1.77407e-11 4.09496e-13 -5.08889e-14 2.22167 -0.733487 -0.20892 1.74051e-15 4.09605e-17 -9.93923e-17 3.66279e-14 6.83322e-16 -7.95139e-16 6.51368e-13 2.26416e-13 9.54166e-15 7.52535e-12 -4.20927e-14 -2.8625e-14 1.77369e-11 4.02636e-13 -4.45278e-14 3.06391e-11 6.96541e-13 -6.83819e-14 1.77324e-11 4.05123e-13 -3.18055e-14 -7.73091 5.47488 -0.417314 1.77368e-11 4.02738e-13 -5.08889e-14 -2.90554 0.965183 -0.102902 1.7727e-11 4.02937e-13 -4.53229e-14 -10.2786 0.731801 -0.0259123 1.77431e-11 4.04726e-13 -5.40694e-14 -2.22167 -0.733487 0.20892 -2.03217e-16 0.0 -3.88251e-19 -0.810753 -1.92439 -0.00361067 -0.00901429 -2.07859 -0.0743027 -0.483708 3.99775 0.136114 2.03217e-16 0.0 3.88251e-19 -1.78664 -6.85419 0.170489 -0.00323707 6.85135 -0.0863764 0.513198 -0.00229803 -0.0582122
0.419098 82.0349 -22.1995 0.0029 -12.0823 17.7169 -2.85037 2.95089 -0.321685 0.638674 -0.590349 -0.145961 -3.82842 0.427063 -2.17749 4.87742 -4.24338 -2.70211 -0.0 0.0 0.0 -0.0 0.0 0.0 4.58616e-14 -9.95128e-14 2.37299e-14 21.5382 14.6836 2.74898 -5.72274 -2.99128 8.47296 0.134524 8.15139 1.10417 -4.24756e-10 1.08181e-09 -8.64305e-10 -7.54452e-10 1.86031e-09 -1.48001e-09 -4.24749e-10 1.08181e-09 -8.64316e-10 7.73091 5.47488 0.417314 -4.24756e-10 1.08181e-09 -8.64306e-10 2.90554 0.965183 0.102902 -4.2475e-10 1.08181e-09 -8.64311e-10 10.2786 0.731801 0.0259123 -4.24756e-10 1.08181e-09 -8.64307e-10 2.22167 -0.733487 -0.20892 4.57866e-14 -9.95105e-14 2.35944e-14 -21.7194 15.1617 -2.20479 6.44897 -3.5717 -9.27877 -2.62161e-05 -0.116637 0.0163922 2.8167e-10 8.83258e-10 -1.13304e-10 4.83845e-10 1.5232e-09 -1.97505e-10 2.81666e-10 8.83262e-10 -1.13296e-10 -7.73091 5.47488 -0.417314 2.81671e-10 8.83262e-10 -1.13311e-10 -2.90554 0.965183 -0.102902 2.81663e-10 8.83262e-10 -1.13306e-10 -10.2786 0.731801 -0.0259123 2.81673e-10 8.83263e-10 -1.13315e-10 -2.22167 -0.733487 0.20892 -2.03217e-16 0.0 -3.88251e-19 -1.85007 -9.84638 -0.920502 -0.0142214 6.99751 0.0452996 -0.663747 -0.984976 -1.86664 2.03217e-16 0.0 3.88251e-19 -1.95652 -16.2043 1.29023 0.000962591 12.2884 -0.122701 0.536334 -0.251741 0.694461
0.232125 82.0456 -22.4019 -0.0765 -11.9862 17.8728 -4.03464 6.0704 -0.61854 1.81083 -1.21857 -0.215236 -7.84689 0.880523 -4.48289 9.60257 -8.68382 -5.61421 -0.0 0.0 0.0 -0.0 0.0 0.0 9.71381e-14 -2.08708e-13 4.43787e-14 42.5643 30.0756 6.3189 -10.8259 -5.93957 17.5101 -0.0785686 16.7551 2.34782 -9.07202e-10 2.26841e-09 -1.81475e-09 -1.61054e-09 3.90089e-09 -3.10758e-09 -9.07193e-10 2.26841e-09 -1.81476e-09 7.73091 5.47488 0.417314 -9.07202e-10 2.26841e-09 -1.81474e-09 2.90554 0.965183 0.102902 -9.07196e-10 2.26841e-09 -1.81475e-09 10.2786 0.731801 0.0259123 -9.07199e-10 2.26841e-09 -1.81475e-09 2.22167 -0.733487 -0.20892 9.70871e-14 -2.08704e-13 4.42575e-14 -43.2209 31.1093 -5.10901 12.0242 -7.03518 -19.2011 1.92042e-05 -0.236878 0.0332911 5.56647e-10 1.864e-09 -2.32138e-10 9.55821e-10 3.21465e-09 -4.04663e-10 5.56643e-10 1.86401e-09 -2.32135e-10 -7.73091 5.47488 -0.417314 5.5665e-10 1.86401e-09 -2.32145e-10 -2.90554 0.965183 -0.102902 5.56643e-10 1.86401e-09 -2.32141e-10 -10.2786 0.731801 -0.0259123 5.56647e-10 1.86401e-09 -2.3215e-10 -2.22167 -0.733487 0.20892 -2.03217e-16 0.0 -3.88251e-19 -3.2518 -18.2136 -1.96365 -0.0623012 16.6101 0.178469 -1.23073 -6.22869 -3.99315 2.03217e-16 0.0 3.88251e-19 -1.70468 -26.0657 2.6579 0.0134061 18.0424 -0.164167 0.567196 -0.525691 1.47418
0.0624593 82.056 -22.6208 -0.0611 -11.8261 18.0229 -5.05268 8.85686 -0.881386 2.85314 -1.77589 -0.275022 -11.3881 1.27379 -6.53392 13.4108 -12.6155 -8.28549 -0.0 0.0 0.0 -0.0 0.0 0.0 1.33909e-13 -2.9862e-13 7.10904e-14 59.0471 43.5643 11.0421 -14.5884 -8.1904 25.6645 -0.617033 24.416 3.60151 -1.30975e-09 3.2446e-09 -2.59282e-09 -2.32462e-09 5.57952e-09 -4.43984e-09 -1.30974e-09 3.2446e-09 -2.59283e-09 7.73091 5.47488 0.417314 -1.30975e-09 3.2446e-09 -2.59282e-09 2.90554 0.965183 0.102902 -1.30975e-09 3.2446e-09 -2.59282e-09 10.2786 0.731801 0.0259123 -1.30975e-09 3.2446e-09 -2.59282e-09 2.22167 -0.733487 -0.20892 1.33879e-13 -2.98613e-13 7.0982e-14 -60.4294 45.1566 -9.0723 15.988 -9.59268 -28.2107 0.000121573 -0.349912 0.0491774 8.09536e-10 2.64897e-09 -3.39823e-10 1.39026e-09 4.56822e-09 -5.92378e-10 8.09532e-10 2.64898e-09 -3.39825e-10 -7.73091 5.47488 -0.417314 8.09541e-10 2.64898e-09 -3.39831e-10 -2.90554 0.965183 -0.102902 8.09536e-10 2.64898e-09 -3.39827e-10 -10.2786 0.731801 -0.0259123 8.09534e-10 2.64898e-09 -3.39836e-10 -2.22167 -0.733487 0.20892 -2.03217e-16 0.0 -3.88251e-19 -4.76159 -25.6632 -3.01084 -0.14652 25.1494 0.313073 -2.08041 -10.8939 -5.97878 2.03217e-16 0.0 3.88251e-19 -0.980429 -34.8467 4.11769 0.0321211 23.1624 -0.204645 0.602261 -0.750131 2.19997
-0.11281 82.0652 -22.8134 -0.1209 -11.6747 18.1724 -5.71773 10.8116 -1.0503 3.57378 -2.15594 -0.310983 -13.8063 1.52383 -7.94763 15.7937 -15.3847 -10.186 -0.0 0.0 0.0 -0.0 0.0 0.0 1.34418e-13 -3.40324e-13 1.12959e-13 68.2766 52.7141 16.2402 -16.7979 -9.45022 31.3759 -1.22493 29.7561 4.60842 -1.51257e-09 3.69476e-09 -2.94e-09 -2.68369e-09 6.35327e-09 -5.03387e-09 -1.51256e-09 3.69477e-09 -2.94e-09 7.73091 5.47488 0.417314 -1.51257e-09 3.69476e-09 -2.93999e-09 2.90554 0.965183 0.102902 -1.51257e-09 3.69476e-09 -2.93999e-09 10.2786 0.731801 0.0259123 -1.51257e-09 3.69476e-09 -2.93999e-09 2.22167 -0.733487 -0.20892 1.34398e-13 -3.40315e-13 1.1286e-13 -70.3602 54.7307 -13.615 18.2489 -10.9569 -34.581 0.000242795 -0.444927 0.0625317 1.00721e-09 2.94449e-09 -4.19636e-10 1.73084e-09 5.07709e-09 -7.31481e-10 1.0072e-09 2.9445e-09 -4.19639e-10 -7.73091 5.47488 -0.417314 1.00721e-09 2.9445e-09 -4.19642e-10 -2.90554 0.965183 -0.102902 1.00721e-09 2.94451e-09 -4.1964e-10 -10.2786 0.731801 -0.0259123 1.0072e-09 2.94451e-09 -4.19649e-10 -2.22167 -0.733487 0.20892 -2.03217e-16 0.0 -3.88251e-19 -5.92528 -30.8443 -3.82946 -0.231957 31.0059 0.421819 -2.90233 -14.1683 -7.49591 2.03217e-16 0.0 3.88251e-19 -0.102297 -40.9831 5.26963 0.0495981 26.6974 -0.234867 0.633195 -0.851277 2.79077
-0.280899 82.0734 -23.0017 -0.1833 -11.6097 18.3338 -5.91448 11.5974 -1.08479 3.84202 -2.27942 -0.314592 -14.6767 1.58117 -8.46925 16.5741 -16.6198 -10.8918 -0.0 0.0 0.0 -0.0 0.0 0.0 7.21009e-14 -3.11478e-13 1.96546e-13 70.9255 56.2851 19.1834 -17.5452 -9.8289 33.5337 -1.5237 31.8413 5.04218 -1.43629e-09 3.38517e-09 -2.66731e-09 -2.54652e-09 5.8199e-09 -4.56582e-09 -1.43628e-09 3.38518e-09 -2.66731e-09 7.73091 5.47488 0.417314 -1.43629e-09 3.38517e-09 -2.66731e-09 2.90554 0.965183 0.102902 -1.43628e-09 3.38517e-09 -2.66731e-09 10.2786 0.731801 0.0259123 -1.43628e-09 3.38517e-09 -2.6673e-09 2.22167 -0.733487 -0.20892 7.20751e-14 -3.11469e-13 1.96454e-13 -73.366 58.3805 -16.229 19.0347 -11.3795 -37.0892 0.000339837 -0.511266 0.0718558 1.16156e-09 2.47107e-09 -4.88102e-10 1.99892e-09 4.25841e-09 -8.50626e-10 1.16156e-09 2.47108e-09 -4.88103e-10 -7.73091 5.47488 -0.417314 1.16157e-09 2.47108e-09 -4.88105e-10 -2.90554 0.965183 -0.102902 1.16157e-09 2.47108e-09 -4.88104e-10 -10.2786 0.731801 -0.0259123 1.16156e-09 2.47108e-09 -4.88113e-10 -2.22167 -0.733487 0.20892 -2.03217e-16 0.0 -3.88251e-19 -6.2721 -32.872 -4.15083 -0.269845 33.1003 0.467627 -3.34534 -15.5372 -8.26965 2.03217e-16 0.0 3.88251e-19 0.357606 -43.4682 5.55275 0.0566306 28.009 -0.245591 0.650213 -0.770622 3.1815
-0.42405 82.0815 -23.1994 -0.1405 -11.5472 18.4765 -5.78272 11.5487 -1.02144 3.78748 -2.22004 -0.295027 -14.4479 1.50201 -8.3534 16.309 -16.7815 -10.7075 -0.0 0.0 0.0 -0.0 0.0 0.0 -3.45167e-14 -2.32387e-13 3.08955e-13 70.3993 56.1023 19.1348 -17.3924 -9.71865 33.1291 -1.48918 31.6127 4.99339 -1.16061e-09 2.53402e-09 -1.95265e-09 -2.05488e-09 4.35478e-09 -3.34051e-09 -1.1606e-09 2.53402e-09 -1.95266e-09 7.73091 5.47488 0.417314 -1.16062e-09 2.53402e-09 -1.95266e-09 2.90554 0.965183 0.102902 -1.16061e-09 2.53402e-09 -1.95265e-09 10.2786 0.731801 0.0259123 -1.16061e-09 2.53402e-09 -1.95265e-09 2.22167 -0.733487 -0.20892 -3.45602e-14 -2.32377e-13 3.08868e-13 -72.9101 57.9715 -16.0998 18.9484 -11.3342 -36.8066 0.000405307 -0.557286 0.0783241 1.28336e-09 1.45239e-09 -5.47144e-10 2.21242e-09 2.49839e-09 -9.53225e-10 1.28336e-09 1.45239e-09 -5.4714e-10 -7.73091 5.47488 -0.417314 1.28337e-09 1.45239e-09 -5.47143e-10 -2.90554 0.965183 -0.102902 1.28336e-09 1.4524e-09 -5.47145e-10 -10.2786 0.731801 -0.0259123 1.28336e-09 1.4524e-09 -5.47152e-10 -2.22167 -0.733487 0.20892 -2.03217e-16 0.0 -3.88251e-19 -5.9459 -32.6533 -4.05684 -0.260332 32.5077 0.459701 -3.42602 -15.5601 -8.47872 2.03217e-16 0.0 3.88251e-19 0.346626 -43.3555 5.07534 0.0540886 27.7326 -0.24103 0.654848 -0.560727 3.42985
-0.612973 82.0887 -23.3839 -0.1652 -11.5091 18.5623 -5.52241 11.1742 -0.913889 3.60909 -2.10098 -0.26449 -13.7879 1.36349 -7.98081 15.6412 -16.4896 -10.1592 -0.0 0.0 0.0 -0.0 0.0 0.0 -1.39564e-13 -1.38087e-13 4.00097e-13 68.6669 54.4186 17.8142 -16.8811 -9.41465 31.7195 -1.3268 30.5131 4.76214 -8.04352e-10 1.50352e-09 -1.08776e-09 -1.42016e-09 2.58146e-09 -1.85795e-09 -8.04342e-10 1.50353e-09 -1.08776e-09 7.73091 5.47488 0.417314 -8.04356e-10 1.50353e-09 -1.08776e-09 2.90554 0.965183 0.102902 -8.04349e-10 1.50353e-09 -1.08776e-09 10.2786 0.731801 0.0259123 -8.04351e-10 1.50352e-09 -1.08775e-09 2.22167 -0.733487 -0.20892 -1.39624e-13 -1.38077e-13 4.00009e-13 -71.0949 55.9561 -14.8557 18.5098 -11.0976 -35.4004 0.000457779 -0.600699 0.0844261 1.33776e-09 3.49565e-10 -5.58139e-10 2.30984e-09 5.93772e-10 -9.72251e-10 1.33775e-09 3.49567e-10 -5.5813e-10 -7.73091 5.47488 -0.417314 1.33776e-09 3.49566e-10 -5.58133e-10 -2.90554 0.965183 -0.102902 1.33776e-09 3.49566e-10 -5.58138e-10 -10.2786 0.731801 -0.0259123 1.33776e-09 3.49568e-10 -5.58144e-10 -2.22167 -0.733487 0.20892 -2.03217e-16 0.0 -3.88251e-19 -5.35124 -31.5316 -3.78099 -0.232707 30.851 0.430974 -3.34654 -15.0495 -8.44231 2.03217e-16 0.0 3.88251e-19 0.175679 -42.1875 4.29999 0.0480089 26.8281 -0.230758 0.655088 -0.314507 3.63879
-0.801658 82.0963 -23.5374 -0.2005 -11.5043 18.5737 -5.33489 10.9826 -0.81554 3.50596 -2.04544 -0.235173 -13.3664 1.243 -7.73213 15.2029 -16.3629 -9.77896 -0.0 0.0 0.0 -0.0 0.0 0.0 -1.97169e-13 -6.36161e-14 4.19883e-13 67.5018 53.4528 17.1184 -16.5585 -9.21658 30.8607 -1.24635 29.9855 4.65144 -4.86297e-10 6.55913e-10 -3.64342e-10 -8.53809e-10 1.12346e-09 -6.18142e-10 -4.86289e-10 6.55919e-10 -3.64348e-10 7.73091 5.47488 0.417314 -4.86301e-10 6.55918e-10 -3.64348e-10 2.90554 0.965183 0.102902 -4.86295e-10 6.55917e-10 -3.64344e-10 10.2786 0.731801 0.0259123 -4.86298e-10 6.55915e-10 -3.64336e-10 2.22167 -0.733487 -0.20892 -1.97232e-13 -6.36068e-14 4.19784e-13 -69.8977 54.7668 -14.2364 18.2305 -10.9367 -34.5392 0.000533014 -0.659221 0.0926516 1.2899e-09 -3.76285e-10 -4.82462e-10 2.2297e-09 -6.58683e-10 -8.40679e-10 1.28989e-09 -3.76285e-10 -4.82449e-10 -7.73091 5.47488 -0.417314 1.2899e-09 -3.76288e-10 -4.82452e-10 -2.90554 0.965183 -0.102902 1.28989e-09 -3.76288e-10 -4.82458e-10 -10.2786 0.731801 -0.0259123 1.2899e-09 -3.76285e-10 -4.82465e-10 -2.22167 -0.733487 0.20892 -2.03217e-16 0.0 -3.88251e-19 -4.89254 -30.8504 -3.55737 -0.215725 29.7527 0.413894 -3.33225 -14.8137 -8.48742 2.03217e-16 0.0 3.88251e-19 0.114632 -41.5136 3.66413 0.0442116 26.2555 -0.22423 0.659251 -0.124832 3.91124
